<svg width="0" height="0" class="hidden">
  <symbol xmlns="http://www.w3.org/2000/svg" viewBox="0 0 20 20" id="facebook">
    <path d="M11.25 6.875V4.375C11.25 3.685 11.81 3.125 12.5 3.125H13.75V0H11.25C9.17875 0 7.5 1.67875 7.5 3.75V6.875H5V10H7.5V20H11.25V10H13.75L15 6.875H11.25Z" ></path>
  </symbol>
  <symbol xmlns="http://www.w3.org/2000/svg" viewBox="0 0 20 20" id="instagram">
    <path d="M13.75 0H6.25C2.79875 0 0 2.79875 0 6.25V13.75C0 17.2013 2.79875 20 6.25 20H13.75C17.2013 20 20 17.2013 20 13.75V6.25C20 2.79875 17.2013 0 13.75 0ZM18.125 13.75C18.125 16.1625 16.1625 18.125 13.75 18.125H6.25C3.8375 18.125 1.875 16.1625 1.875 13.75V6.25C1.875 3.8375 3.8375 1.875 6.25 1.875H13.75C16.1625 1.875 18.125 3.8375 18.125 6.25V13.75Z" ></path>
    <path d="M10 5C7.23875 5 5 7.23875 5 10C5 12.7613 7.23875 15 10 15C12.7613 15 15 12.7613 15 10C15 7.23875 12.7613 5 10 5ZM10 13.125C8.2775 13.125 6.875 11.7225 6.875 10C6.875 8.27625 8.2775 6.875 10 6.875C11.7225 6.875 13.125 8.27625 13.125 10C13.125 11.7225 11.7225 13.125 10 13.125Z"></path>
    <path d="M15.375 5.29124C15.7429 5.29124 16.0412 4.99295 16.0412 4.62499C16.0412 4.25703 15.7429 3.95874 15.375 3.95874C15.007 3.95874 14.7087 4.25703 14.7087 4.62499C14.7087 4.99295 15.007 5.29124 15.375 5.29124Z"></path>
  </symbol>
  <symbol xmlns="http://www.w3.org/2000/svg" viewBox="0 0 20 20" id="twitter">
    <g clip-path="url(#clip0)">
      <path d="M20 3.79875C19.2563 4.125 18.4637 4.34125 17.6375 4.44625C18.4875 3.93875 19.1363 3.14125 19.4412 2.18C18.6488 2.6525 17.7738 2.98625 16.8412 3.1725C16.0887 2.37125 15.0162 1.875 13.8462 1.875C11.5763 1.875 9.74875 3.7175 9.74875 5.97625C9.74875 6.30125 9.77625 6.61375 9.84375 6.91125C6.435 6.745 3.41875 5.11125 1.3925 2.6225C1.03875 3.23625 0.83125 3.93875 0.83125 4.695C0.83125 6.115 1.5625 7.37375 2.6525 8.1025C1.99375 8.09 1.3475 7.89875 0.8 7.5975C0.8 7.61 0.8 7.62625 0.8 7.6425C0.8 9.635 2.22125 11.29 4.085 11.6712C3.75125 11.7625 3.3875 11.8062 3.01 11.8062C2.7475 11.8062 2.4825 11.7913 2.23375 11.7362C2.765 13.36 4.2725 14.5538 6.065 14.5925C4.67 15.6838 2.89875 16.3412 0.98125 16.3412C0.645 16.3412 0.3225 16.3263 0 16.285C1.81625 17.4563 3.96875 18.125 6.29 18.125C13.835 18.125 17.96 11.875 17.96 6.4575C17.96 6.27625 17.9538 6.10125 17.945 5.9275C18.7588 5.35 19.4425 4.62875 20 3.79875Z"></path>
    </g>
    <defs>
      <clipPath id="clip0">
        <rect width="20" height="20" fill="white"></rect>
      </clipPath>
    </defs>
  </symbol>
  <symbol xmlns="http://www.w3.org/2000/svg" viewBox="0 0 20 20" id="youtube">
    <path d="M19.15 4.45C18.6075 3.485 18.0188 3.3075 16.82 3.24C15.6225 3.15875 12.6112 3.125 10.0025 3.125C7.38875 3.125 4.37625 3.15875 3.18 3.23875C1.98375 3.3075 1.39375 3.48375 0.84625 4.45C0.2875 5.41375 0 7.07375 0 9.99625C0 9.99875 0 10 0 10C0 10.0025 0 10.0038 0 10.0038V10.0063C0 12.9163 0.2875 14.5887 0.84625 15.5425C1.39375 16.5075 1.9825 16.6825 3.17875 16.7638C4.37625 16.8338 7.38875 16.875 10.0025 16.875C12.6112 16.875 15.6225 16.8337 16.8212 16.765C18.02 16.6837 18.6087 16.5088 19.1513 15.5438C19.715 14.59 20 12.9175 20 10.0075C20 10.0075 20 10.0038 20 10.0013C20 10.0013 20 9.99875 20 9.9975C20 7.07375 19.715 5.41375 19.15 4.45ZM7.5 13.75V6.25L13.75 10L7.5 13.75Z"></path>
  </symbol>
</svg>
